<svg width="126" height="40" viewBox="0 0 126 40" fill="none" xmlns="http://www.w3.org/2000/svg">
<g id="Logo 2" clip-path="url(#clip0)">
<g id="&#208;&#161;&#208;&#187;&#208;&#190;&#208;&#185; 2">
<g id="&#208;&#161;&#208;&#187;&#208;&#190;&#208;&#185; 1">
<path id="Vector" fill-rule="evenodd" clip-rule="evenodd" d="M41.2748 36.9872C41.2521 36.9286 41.2256 36.8716 41.1956 36.8164C41.1797 36.7806 41.1613 36.746 41.1407 36.7127L38.6643 32.4431V32.3882L38.5972 32.2906C38.5286 32.1884 38.451 32.0924 38.3654 32.004C38.2228 31.8583 38.0606 31.7331 37.8836 31.6319C37.707 31.5328 37.5184 31.4569 37.3224 31.4062C37.2218 31.384 37.12 31.3677 37.0175 31.3574H36.8955H36.7125C36.6515 31.3574 36.5905 31.3574 36.5295 31.3574C36.3081 31.3825 36.092 31.4422 35.8891 31.5343C35.494 31.7016 35.1538 31.9763 34.9071 32.3272C34.7776 32.5363 34.6828 32.7649 34.6265 33.0043C34.5727 33.2423 34.5583 33.4874 34.5838 33.7301C34.6124 33.9613 34.674 34.1873 34.7668 34.401L34.8461 34.5657C34.8479 34.5819 34.8479 34.5983 34.8461 34.6145L37.3224 38.8841L37.3895 38.9878C37.4205 39.0409 37.4552 39.0919 37.4932 39.1403C37.6328 39.3156 37.7972 39.4697 37.9812 39.5977C38.2159 39.7574 38.4787 39.8712 38.7558 39.9332C39.0179 39.9819 39.2866 39.9819 39.5487 39.9332C39.7607 39.8994 39.9664 39.8336 40.1587 39.738C40.4526 39.5929 40.7109 39.3846 40.915 39.1281C41.1185 38.8746 41.2623 38.5786 41.3358 38.262C41.3785 38.0616 41.397 37.8568 41.3907 37.652C41.387 37.4257 41.3479 37.2014 41.2748 36.9872Z" fill="url(#paint0_linear)"/>
<path id="Vector_2" fill-rule="evenodd" clip-rule="evenodd" d="M34.8704 26.0201C35.0937 25.6303 35.2835 25.2222 35.4377 24.8002C35.6025 24.3432 35.723 23.8714 35.7975 23.3913C36.0501 21.8297 35.8159 20.2283 35.1266 18.8045C34.9648 18.4634 34.7772 18.1351 34.5654 17.8225C34.3014 17.4366 34.0056 17.0734 33.681 16.7368C32.793 15.8371 31.7007 15.1654 30.4971 14.7789C30.0347 14.6279 29.5588 14.5217 29.076 14.4617C28.7649 14.4251 28.466 14.4068 28.1489 14.4007H28.0574H27.7524C27.545 14.4007 27.3376 14.4007 27.1425 14.4434C26.5549 14.5081 25.9749 14.6286 25.4102 14.8033C24.7292 15.0154 24.0745 15.3039 23.4584 15.6633C22.8356 16.0315 22.2583 16.4717 21.7384 16.9747C21.3459 17.3478 20.9886 17.7561 20.671 18.1946C20.488 18.4446 20.3233 18.7008 20.1647 18.9692C18.2861 22.2222 16.4115 25.4752 14.541 28.7283L11.9549 33.193C11.8878 33.315 11.8085 33.4309 11.7292 33.5468C11.5664 33.7824 11.3827 34.0029 11.1803 34.2056C10.9331 34.4523 10.6612 34.673 10.369 34.8643C10.2139 34.9632 10.053 35.0529 9.88719 35.1327L9.57002 35.2729C9.42973 35.3278 9.28335 35.3766 9.13696 35.4193C8.92044 35.481 8.70048 35.5299 8.47822 35.5657C8.33184 35.5657 8.18545 35.6023 8.03907 35.6084H7.56941C7.44132 35.6084 7.31933 35.6084 7.19125 35.5657C6.46628 35.4313 5.80354 35.0678 5.30043 34.5288C5.07454 34.2829 4.88552 34.0056 4.73928 33.7054C4.62777 33.4714 4.54188 33.226 4.4831 32.9735C4.32892 32.2651 4.40367 31.5262 4.69658 30.8631C4.73928 30.7716 4.78807 30.6801 4.83687 30.5886C9.35044 22.5313 14.0287 14.5654 18.6765 6.56908L21.4456 11.3693C21.4575 11.395 21.4718 11.4195 21.4883 11.4425C21.5316 11.5135 21.5805 11.5808 21.6347 11.6438C21.9182 11.9973 22.3037 12.2549 22.7387 12.3818C23.036 12.4661 23.3477 12.4869 23.6536 12.4428C23.9866 12.3973 24.3042 12.274 24.5807 12.083C24.7673 11.9582 24.9321 11.8037 25.0686 11.6255C25.2439 11.4048 25.3745 11.1521 25.4529 10.8814C25.5288 10.6118 25.5537 10.3305 25.5261 10.0518C25.5031 9.8268 25.4455 9.60666 25.3553 9.39921C25.3359 9.34809 25.3114 9.29904 25.2821 9.25282L25.2455 9.14913L20.5795 1.0979C20.5429 1.0308 20.5307 1.0186 20.488 0.95151C20.4406 0.883858 20.3897 0.81871 20.3355 0.756328L20.2135 0.63434C20.2135 0.63434 20.2135 0.597743 20.1708 0.585544C20.0646 0.486019 19.948 0.398098 19.8231 0.323269H19.7865C19.6662 0.256016 19.5396 0.200852 19.4084 0.158585H19.3718H19.3352C19.2146 0.0935378 19.0879 0.040424 18.957 0L18.8472 0H18.6216H18.4569H18.3898L18.2983 0.0426959C18.1797 0.0617072 18.0632 0.0923522 17.9506 0.134187C17.9304 0.1315 17.9099 0.1315 17.8896 0.134187L17.8103 0.182983C17.6915 0.234232 17.5773 0.295444 17.4688 0.365965L17.3956 0.42086L17.2431 0.536749C17.2004 0.573345 17.1699 0.609942 17.1333 0.646538L17.0723 0.701433L17.0296 0.756328C16.9808 0.811223 16.9442 0.866118 16.9015 0.921012L16.7795 1.0979L1.03693 28.3623C0.902891 28.5938 0.780744 28.832 0.670966 29.0759C0.462899 29.5518 0.299544 30.0459 0.183012 30.552C-0.0610041 31.6631 -0.0610041 32.8139 0.183012 33.925C0.30554 34.4643 0.483364 34.9896 0.713662 35.4925C1.33415 36.8318 2.32187 37.9676 3.56209 38.7679C4.31001 39.2506 5.13525 39.6014 6.00186 39.8048C6.4494 39.9045 6.90428 39.9677 7.36203 39.9939C7.74591 40.0183 8.13094 40.0183 8.51482 39.9939C9.05898 39.9495 9.59795 39.8555 10.1251 39.7133C10.4239 39.634 10.735 39.5364 11.0156 39.4267C11.2962 39.3169 11.4303 39.262 11.6255 39.1705C12.915 38.574 14.0487 37.6867 14.9375 36.5782C15.0961 36.3769 15.2486 36.1757 15.3889 35.9683C15.5292 35.7609 15.6145 35.6267 15.7182 35.4498C18.0645 31.3835 20.4067 27.3173 22.7448 23.251L23.922 21.2199C24.0014 21.0787 24.089 20.9423 24.1842 20.8112C24.3642 20.5637 24.5685 20.3348 24.7942 20.1281C25.5004 19.462 26.391 19.0241 27.3498 18.8716C27.5396 18.8412 27.7311 18.8229 27.9232 18.8167H28.2647C28.3997 18.8219 28.5342 18.8361 28.6673 18.8594C28.9072 18.9001 29.1423 18.9655 29.3687 19.0546C29.4948 19.1115 29.6229 19.1725 29.753 19.2376C30.1002 19.4338 30.4117 19.6874 30.674 19.9878C30.822 20.1675 30.9546 20.3593 31.0705 20.5611C31.2414 20.874 31.3628 21.2114 31.4303 21.5614C31.4882 21.9272 31.4882 22.2997 31.4303 22.6654C31.3869 22.9523 31.3091 23.2328 31.1986 23.5011C31.1478 23.6179 31.0908 23.7319 31.0278 23.8426C28.588 28.1671 26.069 32.4367 23.5865 36.7368L23.5194 36.8527C23.4828 36.9381 23.4462 37.0174 23.4157 37.1028C23.3103 37.4019 23.2708 37.7202 23.2998 38.036C23.3481 38.5802 23.601 39.0859 24.0073 39.451C24.1725 39.6052 24.3622 39.731 24.5685 39.8231C24.7719 39.9207 24.9906 39.9826 25.215 40.0061C25.5736 40.0491 25.9372 40.0038 26.2742 39.8741C26.6112 39.7444 26.9114 39.5343 27.1485 39.262C27.2087 39.1929 27.2638 39.1195 27.3132 39.0424L27.3864 38.9265L34.8582 26.0445L34.8704 26.0201Z" fill="url(#paint1_linear)"/>
</g>
<g id="&#208;&#161;&#208;&#187;&#208;&#190;&#208;&#185; 2_2">
<path id="Vector_3" d="M125.227 28.5023C125.429 28.7717 125.553 29.0916 125.585 29.4269C125.617 29.7621 125.556 30.0997 125.408 30.4024C125.261 30.7052 125.033 30.9613 124.749 31.1426C124.465 31.3239 124.137 31.4234 123.8 31.4301C123.525 31.4288 123.254 31.3656 123.007 31.2453C122.76 31.1249 122.543 30.9504 122.373 30.7347L118.103 25.2453L113.834 30.7347C113.664 30.9496 113.448 31.1236 113.202 31.2439C112.956 31.3643 112.686 31.4279 112.412 31.4301C112.076 31.4234 111.747 31.3239 111.464 31.1426C111.18 30.9613 110.951 30.7052 110.804 30.4024C110.656 30.0997 110.595 29.7621 110.627 29.4269C110.659 29.0916 110.783 28.7717 110.985 28.5023L115.81 22.2504L110.985 15.9985C110.69 15.6148 110.559 15.1298 110.621 14.6496C110.682 14.1695 110.932 13.7334 111.314 13.4368C111.5 13.2894 111.713 13.1809 111.942 13.1175C112.17 13.0542 112.409 13.0374 112.644 13.0681C112.879 13.0988 113.105 13.1765 113.309 13.2964C113.514 13.4163 113.692 13.576 113.834 13.7661L118.103 19.2922L122.373 13.7661C122.515 13.5758 122.693 13.416 122.898 13.296C123.103 13.176 123.33 13.0984 123.566 13.0676C123.801 13.0369 124.04 13.0538 124.269 13.1172C124.498 13.1806 124.712 13.2893 124.898 13.4368C125.28 13.7334 125.53 14.1695 125.592 14.6496C125.653 15.1298 125.522 15.6148 125.227 15.9985L120.397 22.2504L125.227 28.5023Z" fill="#2A2F3A"/>
<path id="Vector_4" d="M60.7137 27.6668C60.9597 27.6662 61.1992 27.7457 61.3961 27.8931C61.593 28.0405 61.7367 28.2479 61.8055 28.4841L62.0739 29.2953V29.5698C62.0782 29.757 62.0295 29.9417 61.9335 30.1025C61.8374 30.2633 61.6979 30.3936 61.531 30.4786C59.5898 31.0785 57.573 31.3989 55.5414 31.4301C48.8686 31.4301 47.3743 28.5695 47.3743 22.037V21.3112C47.3743 14.6384 49.8689 12.8086 55.2669 12.8086C61.2138 12.8086 62.5313 15.8583 62.5313 20.4329V22.8116C62.5387 22.949 62.5185 23.0865 62.4719 23.216C62.4253 23.3454 62.3533 23.4642 62.2601 23.5654C62.1669 23.6666 62.0543 23.7481 61.9291 23.8051C61.8039 23.8621 61.6685 23.8935 61.531 23.8973H50.6253C50.8509 26.8495 51.9854 28.4841 55.4316 28.4841C57.1276 28.4961 58.8144 28.2346 60.427 27.7095C60.5795 27.7095 60.5795 27.6668 60.7137 27.6668ZM50.6253 20.9025H59.262V19.8168C59.262 17.2246 58.0848 15.9559 54.9924 15.9559C51.5036 15.9559 50.6253 17.1819 50.6253 20.9025Z" fill="#333333"/>
<path id="Vector_5" d="M78.2315 24.5318C78.2315 26.8923 78.6829 28.4843 80.6347 28.4843C82.5865 28.4843 83.0744 26.8923 83.0744 24.5318V14.1628C83.0662 14.0254 83.0856 13.8878 83.1314 13.758C83.1772 13.6283 83.2486 13.509 83.3413 13.4072C83.4339 13.3055 83.546 13.2233 83.6709 13.1656C83.7959 13.1078 83.9311 13.0757 84.0686 13.071H85.3434C85.4812 13.0748 85.6169 13.1064 85.7422 13.1639C85.8675 13.2213 85.98 13.3035 86.0728 13.4054C86.1656 13.5074 86.2369 13.627 86.2824 13.7571C86.3279 13.8873 86.3467 14.0253 86.3376 14.1628V25.0076C86.3376 29.3138 84.9775 31.4486 80.6652 31.4486C78.7195 31.4486 77.402 31.1741 76.5359 30.2714C75.3395 30.99 73.9785 31.3891 72.5834 31.4303C68.2285 31.4303 66.8622 29.3443 66.8622 24.9893V14.1445C66.854 14.0067 66.8735 13.8685 66.9197 13.7384C66.9659 13.6082 67.0378 13.4886 67.1311 13.3868C67.2244 13.2849 67.3372 13.2029 67.4629 13.1455C67.5885 13.0881 67.7244 13.0566 67.8625 13.0527H69.1312C69.2692 13.0566 69.4051 13.0881 69.5308 13.1455C69.6564 13.2029 69.7692 13.2849 69.8625 13.3868C69.9558 13.4886 70.0277 13.6082 70.0739 13.7384C70.1201 13.8685 70.1397 14.0067 70.1315 14.1445V24.5135C70.1315 26.874 70.6743 28.466 72.7176 28.466C73.5948 28.5271 74.4724 28.3545 75.2611 27.9658C75.0564 26.9932 74.9562 26.0015 74.9622 25.0076V15.3217C74.954 15.1838 74.9736 15.0457 75.0198 14.9155C75.066 14.7854 75.1378 14.6658 75.2311 14.564C75.3245 14.4621 75.4373 14.3801 75.5629 14.3227C75.6886 14.2653 75.8244 14.2338 75.9625 14.2299H77.2312C77.3693 14.2338 77.5052 14.2653 77.6308 14.3227C77.7564 14.3801 77.8693 14.4621 77.9626 14.564C78.0559 14.6658 78.1278 14.7854 78.174 14.9155C78.2202 15.0457 78.2397 15.1838 78.2315 15.3217V24.5318Z" fill="#333333"/>
<path id="Vector_6" d="M90.8813 22.9458V22.22C90.8813 15.6875 92.2476 12.8086 98.8716 12.8086C105.496 12.8086 106.905 15.6692 106.905 22.2017V22.9275C106.905 29.5942 104.227 31.4118 98.8289 31.4118C93.4309 31.4118 90.8813 29.6125 90.8813 22.9458ZM94.1506 21.7259V23.2691C94.1506 27.1239 95.3705 28.4902 98.8228 28.4902C102.409 28.4902 103.629 27.1239 103.629 23.2691V21.7198C103.629 17.9992 102.678 15.9559 98.8228 15.9559C94.968 15.9559 94.1567 17.9992 94.1567 21.7198L94.1506 21.7259Z" fill="#333333"/>
</g>
</g>
</g>
<defs>
<linearGradient id="paint0_linear" x1="37.9817" y1="31.3574" x2="37.9817" y2="39.9697" gradientUnits="userSpaceOnUse">
<stop offset="0.267361" stop-color="#1A3A84"/>
<stop offset="1" stop-color="#4060AB"/>
</linearGradient>
<linearGradient id="paint1_linear" x1="17.9482" y1="0" x2="17.9482" y2="40.0219" gradientUnits="userSpaceOnUse">
<stop offset="0.267361" stop-color="#1A3A84"/>
<stop offset="1" stop-color="#4060AB"/>
</linearGradient>
<clipPath id="clip0">
<rect width="125.611" height="40" fill="white"/>
</clipPath>
</defs>
</svg>
